<?xml version="1.0" encoding="UTF-8"?>
<svg xmlns="http://www.w3.org/2000/svg" xmlns:xlink="http://www.w3.org/1999/xlink" width="24px" height="24px" viewBox="0 0 24 24" version="1.1">
<g id="surface1">
<path style=" stroke:none;fill-rule:nonzero;fill:rgb(0%,0%,0%);fill-opacity:1;" d="M 11.085938 0.285156 C 7.363281 0.570312 4.011719 2.605469 2.007812 5.792969 C 1.65625 6.355469 1.1875 7.3125 0.941406 7.984375 C 0.710938 8.601562 0.453125 9.605469 0.34375 10.320312 C 0.226562 11.066406 0.226562 12.929688 0.34375 13.6875 C 0.675781 15.847656 1.527344 17.789062 2.859375 19.433594 C 4.476562 21.421875 6.933594 22.925781 9.515625 23.503906 C 10.367188 23.691406 11.078125 23.765625 12.046875 23.765625 C 14.441406 23.765625 16.609375 23.109375 18.585938 21.78125 C 19.804688 20.96875 20.96875 19.800781 21.773438 18.585938 C 23.113281 16.570312 23.765625 14.429688 23.765625 12.023438 C 23.765625 8.75 22.507812 5.804688 20.160156 3.554688 C 18.191406 1.667969 15.609375 0.523438 12.773438 0.28125 C 12.140625 0.230469 11.832031 0.230469 11.085938 0.285156 Z M 16.472656 8.675781 C 17.207031 9.835938 17.8125 10.796875 17.8125 10.808594 C 17.8125 10.824219 17.742188 10.796875 17.664062 10.742188 C 17.578125 10.691406 17.304688 10.613281 17.0625 10.566406 C 16.820312 10.523438 15.992188 10.363281 15.234375 10.210938 C 14.476562 10.058594 13.730469 9.910156 13.578125 9.882812 L 13.304688 9.824219 L 12.453125 8.921875 C 11.992188 8.421875 11.574219 8.007812 11.535156 7.992188 C 11.488281 7.972656 11.597656 7.90625 11.835938 7.8125 C 12.46875 7.566406 15.070312 6.570312 15.097656 6.566406 C 15.117188 6.566406 15.734375 7.515625 16.472656 8.675781 Z M 12.027344 9.191406 L 12.9375 10.109375 L 12.792969 10.457031 C 12.582031 10.953125 11.75 12.867188 11.605469 13.179688 L 11.484375 13.453125 L 10.289062 13.453125 L 10.648438 10.929688 C 10.847656 9.546875 11.011719 8.339844 11.015625 8.25 C 11.019531 8.105469 11.023438 8.09375 11.070312 8.179688 C 11.101562 8.230469 11.53125 8.6875 12.027344 9.191406 Z M 14.984375 11.375 C 14.972656 11.421875 14.796875 12.617188 14.597656 14.039062 L 14.234375 16.617188 L 13.402344 15.773438 C 12.941406 15.308594 12.523438 14.875 12.472656 14.804688 L 12.375 14.679688 L 12.613281 14.101562 C 12.746094 13.78125 13.035156 13.109375 13.25 12.609375 C 13.472656 12.109375 13.6875 11.605469 13.730469 11.492188 L 13.804688 11.296875 L 14.40625 11.296875 C 14.953125 11.296875 15.003906 11.300781 14.984375 11.375 Z M 13.039062 15.847656 C 13.574219 16.402344 13.996094 16.859375 13.976562 16.878906 C 13.941406 16.90625 13.636719 17.019531 11.8125 17.671875 C 11.15625 17.90625 10.539062 18.132812 10.433594 18.167969 C 10.335938 18.207031 10.242188 18.226562 10.226562 18.210938 C 10.214844 18.195312 10.234375 18.1875 10.265625 18.1875 C 10.3125 18.1875 10.3125 18.167969 10.257812 18.101562 C 10.21875 18.0625 9.929688 17.601562 9.609375 17.085938 C 9.289062 16.570312 8.78125 15.734375 8.46875 15.234375 C 8.160156 14.734375 7.832031 14.253906 7.742188 14.175781 L 7.574219 14.03125 L 9.824219 14.4375 L 12.070312 14.851562 Z M 13.039062 15.847656 "/>
</g>
</svg>
