<?xml version="1.0" encoding="utf-8"?>
<!-- Generator: Adobe Illustrator 26.1.0, SVG Export Plug-In . SVG Version: 6.00 Build 0)  -->
<svg version="1.1"
	 id="ic_empty_Dark_transactions" xmlns:cc="http://creativecommons.org/ns#" xmlns:dc="http://purl.org/dc/elements/1.1/" xmlns:inkscape="http://www.inkscape.org/namespaces/inkscape" xmlns:rdf="http://www.w3.org/1999/02/22-rdf-syntax-ns#" xmlns:sodipodi="http://sodipodi.sourceforge.net/DTD/sodipodi-0.dtd" xmlns:svg="http://www.w3.org/2000/svg"
	 xmlns="http://www.w3.org/2000/svg" xmlns:xlink="http://www.w3.org/1999/xlink" x="0px" y="0px" viewBox="0 0 100 100"
	 style="enable-background:new 0 0 100 100;" xml:space="preserve">
<style type="text/css">
	.st0{fill:#F9F9F9;}
	.st1{fill:#141414;}
	.st2{fill:#A09EA5;}
	.st3{display:none;}
	.st4{display:inline;fill:#0099F9;}
</style>
<sodipodi:namedview  bordercolor="#666666" borderopacity="1" gridtolerance="10" guidetolerance="10" id="namedview22" inkscape:current-layer="Group_9036" inkscape:cx="55.958545" inkscape:cy="48.067879" inkscape:document-rotation="0" inkscape:pageopacity="0" inkscape:pageshadow="2" inkscape:window-height="2126" inkscape:window-maximized="1" inkscape:window-width="3840" inkscape:window-x="-11" inkscape:window-y="-11" inkscape:zoom="17.354896" objecttolerance="10" pagecolor="#ffffff" showgrid="false">
	</sodipodi:namedview>
<g id="Group_9036">
	<circle id="circle5" class="st0" cx="49.9" cy="50" r="17.9"/>
	<path id="Path_18988" class="st1" d="M50,26c-13.3,0-24,10.7-24,24s10.7,24,24,24s24-10.7,24-24S63.3,26,50,26z M50,68
		c-9.9,0-18-8.1-18-18s8.1-18,18-18s18,8.1,18,18S59.9,68,50,68z"/>
	<g id="Group_9035">
		<g id="Group_9034">
			<path id="Rectangle_4693" class="st2" d="M83,56h2v4h-2V56z"/>
			<path id="Rectangle_4694" class="st2" d="M83,44h2v8h-2V44z"/>
			<path id="Rectangle_4695" class="st2" d="M15,48h2v8h-2V48z"/>
			<path id="Rectangle_4696" class="st2" d="M15,40h2v4h-2V40z"/>
			<path id="Path_18991" class="st2" d="M95.2,71H85v-7h-2v9h7.8L76,90.5L61.2,73H68v-2h-4.5c11.6-7.5,15-22.9,7.5-34.5
				c-6.4-9.9-18.9-14-29.9-9.8L24,6.5L4.8,29H15v7h2v-9H9.2L24,9.5L38.8,27H32v2h4.5c-11.6,7.5-15,22.9-7.5,34.5
				c6.4,9.9,18.9,14,29.9,9.8L76,93.5L95.2,71z M27,50c0-12.7,10.3-23,23-23s23,10.3,23,23S62.7,73,50,73S27,62.7,27,50z"/>
		</g>
	</g>
	<g id="g892" transform="matrix(0.06120879,0,0,0.06120879,58.580706,46.609573)" class="st3">
		<path id="path869" class="st4" d="M-215.9,191.8h-48.7V9.1h48.7V191.8z"/>
		<path id="path871" class="st4" d="M-112.5,191.8h-48.3v-259h48.3L-112.5,191.8z"/>
		<path id="path873" class="st4" d="M-12.5,191.8h-48.7V9.1h48.7V191.8z"/>
		<path id="path875" class="st4" d="M-264.5-31.2v-48.7h252v48.7H-264.5z"/>
	</g>
</g>
<image style="display:none;overflow:visible;" width="512" height="512" xlink:href="../../../../../../../../IMAGES/MAIN COIN LOGO/NEW COIN LOGO/512.png"  transform="matrix(0.1147 0 0 0.1147 20.6419 21.1419)">
</image>
<g id="surface1">
	<path d="M48.2,27.1c-7.3,0.6-13.8,4.5-17.8,10.8c-0.7,1.1-1.6,3-2.1,4.3c-0.5,1.2-1,3.2-1.2,4.6c-0.2,1.5-0.2,5.1,0,6.6
		c0.6,4.2,2.3,8,4.9,11.2c3.2,3.9,8,6.8,13,8c1.7,0.4,3.1,0.5,5,0.5c4.7,0,8.9-1.3,12.8-3.9c2.4-1.6,4.7-3.9,6.2-6.2
		C71.7,58.9,73,54.7,73,50c0-6.4-2.5-12.2-7.1-16.6c-3.9-3.7-8.9-5.9-14.4-6.4C50.3,27,49.7,27,48.2,27.1z M58.7,43.5
		c1.4,2.3,2.6,4.1,2.6,4.2c0,0-0.1,0-0.3-0.1c-0.2-0.1-0.7-0.3-1.2-0.3c-0.5-0.1-2.1-0.4-3.6-0.7c-1.5-0.3-2.9-0.6-3.2-0.6l-0.5-0.1
		L50.9,44c-0.9-1-1.7-1.8-1.8-1.8c-0.1,0,0.1-0.2,0.6-0.4c1.2-0.5,6.3-2.4,6.4-2.4C56.1,39.4,57.3,41.2,58.7,43.5z M50,44.5l1.8,1.8
		L51.5,47c-0.4,1-2,4.7-2.3,5.3L49,52.8h-2.3l0.7-4.9c0.4-2.7,0.7-5.1,0.7-5.2c0-0.3,0-0.3,0.1-0.1C48.2,42.6,49.1,43.5,50,44.5z
		 M55.8,48.8c0,0.1-0.4,2.4-0.8,5.2l-0.7,5l-1.6-1.7c-0.9-0.9-1.7-1.8-1.8-1.9l-0.2-0.2l0.5-1.1c0.3-0.6,0.8-1.9,1.2-2.9
		c0.4-1,0.9-2,0.9-2.2l0.1-0.4h1.2C55.8,48.6,55.9,48.6,55.8,48.8z M52,57.5c1,1.1,1.9,2,1.8,2c-0.1,0.1-0.7,0.3-4.2,1.6
		c-1.3,0.5-2.5,0.9-2.7,1c-0.2,0.1-0.4,0.1-0.4,0.1c0,0,0,0,0.1,0c0.1,0,0.1,0,0-0.2c-0.1-0.1-0.6-1-1.3-2c-0.6-1-1.6-2.6-2.2-3.6
		c-0.6-1-1.2-1.9-1.4-2.1L41.3,54l4.4,0.8l4.4,0.8L52,57.5z"/>
</g>
</svg>
