<?xml version="1.0" encoding="utf-8"?>
<!-- Generator: Adobe Illustrator 26.1.0, SVG Export Plug-In . SVG Version: 6.00 Build 0)  -->
<svg version="1.1"
	 id="ic_empty_transactions" xmlns:cc="http://creativecommons.org/ns#" xmlns:dc="http://purl.org/dc/elements/1.1/" xmlns:inkscape="http://www.inkscape.org/namespaces/inkscape" xmlns:rdf="http://www.w3.org/1999/02/22-rdf-syntax-ns#" xmlns:sodipodi="http://sodipodi.sourceforge.net/DTD/sodipodi-0.dtd" xmlns:svg="http://www.w3.org/2000/svg"
	 xmlns="http://www.w3.org/2000/svg" xmlns:xlink="http://www.w3.org/1999/xlink" x="0px" y="0px" viewBox="0 0 100 100"
	 style="enable-background:new 0 0 100 100;" xml:space="preserve">
<style type="text/css">
	.st0{fill:#141414;}
	.st1{fill:#666666;}
	.st2{fill:#0099F9;}
</style>
<sodipodi:namedview  bordercolor="#666666" borderopacity="1" gridtolerance="10" guidetolerance="10" id="namedview22" inkscape:current-layer="Group_9013" inkscape:cx="29.224692" inkscape:cy="57.544555" inkscape:document-rotation="0" inkscape:pageopacity="0" inkscape:pageshadow="2" inkscape:window-height="2126" inkscape:window-maximized="1" inkscape:window-width="3840" inkscape:window-x="-11" inkscape:window-y="-11" inkscape:zoom="8.4711955" objecttolerance="10" pagecolor="#ffffff" showgrid="false">
	</sodipodi:namedview>
<g id="Group_9015">
	<path id="Path_18970" class="st0" d="M50,26c-13.3,0-24,10.7-24,24s10.7,24,24,24s24-10.7,24-24S63.3,26,50,26z M50,68
		c-9.9,0-18-8.1-18-18s8.1-18,18-18s18,8.1,18,18S59.9,68,50,68z"/>
	<g id="Group_9014">
		<g id="Group_9013">
			<path id="Path_18972" class="st0" d="M50,31c-10.5,0-19,8.5-19,19s8.5,19,19,19s19-8.5,19-19S60.5,31,50,31z M50,67
				c-9.4,0-17-7.6-17-17s7.6-17,17-17s17,7.6,17,17S59.4,67,50,67z"/>
			<path id="Rectangle_4664" class="st1" d="M83,56h2v4h-2V56z"/>
			<path id="Rectangle_4665" class="st1" d="M83,44h2v8h-2V44z"/>
			<path id="Rectangle_4666" class="st1" d="M15,48h2v8h-2V48z"/>
			<path id="Rectangle_4667" class="st1" d="M15,40h2v4h-2V40z"/>
			<path id="Path_18973" class="st1" d="M95.2,71H85v-7h-2v9h7.8L76,90.5L61.2,73H68v-2h-4.5c11.6-7.5,15-22.9,7.5-34.5
				c-6.4-9.9-18.9-14-29.9-9.8L24,6.5L4.8,29H15v7h2v-9H9.2L24,9.5L38.8,27H32v2h4.5c-11.6,7.5-15,22.9-7.5,34.5
				c6.4,9.9,18.9,14,29.9,9.8L76,93.5L95.2,71z M27,50c0-12.7,10.3-23,23-23s23,10.3,23,23S62.7,73,50,73S27,62.7,27,50z"/>
		</g>
	</g>
</g>
<ellipse id="circle14" class="st2" cx="50" cy="50" rx="20.2" ry="20.7"/>
<g id="surface1">
	<path d="M48.2,27.1c-7.2,0.6-13.8,4.5-17.7,10.7c-0.7,1.1-1.6,3-2.1,4.3c-0.4,1.2-0.9,3.2-1.2,4.5c-0.2,1.5-0.2,5.1,0,6.5
		c0.6,4.2,2.3,8,4.9,11.2c3.1,3.9,7.9,6.8,12.9,7.9c1.7,0.4,3,0.5,4.9,0.5c4.7,0,8.9-1.3,12.7-3.9c2.4-1.6,4.6-3.9,6.2-6.2
		c2.6-3.9,3.9-8.1,3.9-12.8c0-6.4-2.4-12.1-7-16.5c-3.8-3.7-8.9-5.9-14.4-6.4C50.2,27,49.6,27,48.2,27.1z M58.7,43.4
		c1.4,2.3,2.6,4.1,2.6,4.1c0,0-0.1,0-0.3-0.1c-0.2-0.1-0.7-0.3-1.2-0.3c-0.5-0.1-2.1-0.4-3.6-0.7c-1.5-0.3-2.9-0.6-3.2-0.6l-0.5-0.1
		l-1.7-1.8c-0.9-1-1.7-1.8-1.8-1.8c-0.1,0,0.1-0.2,0.6-0.3c1.2-0.5,6.3-2.4,6.3-2.4C56,39.3,57.2,41.1,58.7,43.4z M50,44.4l1.8,1.8
		l-0.3,0.7c-0.4,1-2,4.7-2.3,5.3L49,52.7h-2.3l0.7-4.9c0.4-2.7,0.7-5,0.7-5.2c0-0.3,0-0.3,0.1-0.1C48.2,42.5,49.1,43.4,50,44.4z
		 M55.8,48.7c0,0.1-0.4,2.4-0.8,5.2l-0.7,5l-1.6-1.6c-0.9-0.9-1.7-1.7-1.8-1.9l-0.2-0.2l0.5-1.1c0.3-0.6,0.8-1.9,1.2-2.9
		c0.4-1,0.9-2,0.9-2.2l0.1-0.4h1.2C55.7,48.5,55.8,48.5,55.8,48.7z M52,57.4c1,1.1,1.9,2,1.8,2c-0.1,0.1-0.7,0.3-4.2,1.5
		c-1.3,0.5-2.5,0.9-2.7,1c-0.2,0.1-0.4,0.1-0.4,0.1c0,0,0,0,0.1,0c0.1,0,0.1,0,0-0.2c-0.1-0.1-0.6-1-1.3-2c-0.6-1-1.6-2.6-2.2-3.6
		c-0.6-1-1.2-1.9-1.4-2.1l-0.3-0.3l4.4,0.8l4.4,0.8L52,57.4z"/>
</g>
</svg>
